<?xml version="1.0" encoding="UTF-8"?>
<svg id="Layer_2" data-name="Layer 2" xmlns="http://www.w3.org/2000/svg" viewBox="0 0 859.99 270.63">
  <defs>
    <style>
      .cls-1 {
        fill: #4b4b4d;
      }

      .cls-2 {
        fill: #4fc096;
      }

      .cls-3 {
        fill: #542ba0;
      }

      .cls-4 {
        fill: #f48234;
      }

      .cls-5 {
        fill: #3cace1;
      }
    </style>
  </defs>
  <g id="Layer_1-2" data-name="Layer 1">
    <g>
      <path class="cls-1" d="M343.5,64.22c2.64.82,22.59,43.21,25.51,49l25.99-49h19v87h-18v-54l-21.16,39.84c-3.26,0-8.53,1.41-10.74-1.44l-21.1-39.4v55h-17v-87c4.48.86,13.75-1.17,17.5,0Z"/>
      <path class="cls-4" d="M51.73,153.41c7.44-1.03,11.43,7.77,4.22,13.25-9.05,6.87-14.52,6.72-21.74,18.26-23.67,37.78,13.16,83.77,55.08,69.08,34.51-12.1,41.82-59.08,12.64-81.19-4.69-3.55-20.85-8.78-12.88-17.05,5.11-5.3,14.41,1.35,19.28,4.65,42.24,28.71,29.62,96.44-19.31,108.32-58.28,14.15-100.29-53.89-60.98-98.98,4.08-4.68,17.85-15.53,23.69-16.34Z"/>
      <path class="cls-2" d="M68,193.22l-.04-113.54c2.05-32.55,16.6-67.04,50.28-76.72,19.2-5.52,39.98-2.7,58.72,3.32-8.34,32.02-33.51,70.79-68.58,76.82-5.42.93-27.04,2.92-23.98-6.9,1.96-6.3,10.82-2.72,16.09-2.99,30.48-1.58,54.34-33.03,62.52-59.98-15.4-2.47-31.82-4.14-46.69,1.81-24.41,9.78-34.5,36.2-37.36,60.64l.04,117.54c-1.92-.34-9.08-.34-11,0Z"/>
      <path class="cls-1" d="M739.5,64.22c21.63,2.9,31.93,32.28,17.5,48.5-1.84,2.07-8.26,5.43-8.04,6.95l18.04,31.55h-19c-2.02-3.56-15.81-29-17.5-29h-15.5v29h-18v-87c13.25,1.28,29.64-1.72,42.5,0ZM715,107.22h22.5c4.02,0,7.92-6.93,8.41-10.59.98-7.29-3.01-17.41-11.41-17.41h-19.5v28Z"/>
      <path class="cls-1" d="M810.76,64.48c69.26-9.39,63.09,102.95-3.77,86.25-43.75-10.93-39.03-80.44,3.77-86.25ZM814.76,79.49c-29.97,4.08-27.9,57.79,3.63,57.62,34.16-.18,32.62-62.55-3.63-57.62Z"/>
      <polygon class="cls-1" points="309 64.22 309 79.22 267 79.22 267 100.22 303 100.22 303 114.22 267 114.22 267 136.22 310 136.22 310 151.22 249 151.22 249 64.22 309 64.22"/>
      <path class="cls-1" d="M680,64.22v15h-40.5c-.11,0-1.5,1.39-1.5,1.5v19.5h37v14h-37v22h42.5c2.56,0,1.17,12.56,1.5,15h-61v-87h59Z"/>
      <path class="cls-1" d="M188.3,93.94c3.32,4.07,25.09,8.01,32.06,11.43,6.65,3.26,12.79,8.51,13.65,16.35,3.47,31.71-30.96,34.74-53.77,26.77-1.83-.64-13.69-5.74-14.1-6.39-1.8-2.84,5.69-12.26,5.89-15.88,10.83,6.31,21.42,11.51,34.48,10,10.6-1.22,13.19-11.08,3.18-16.17-12.03-6.12-36.77-6.47-40.23-22.77-5.45-25.69,18.01-35.75,39.8-32.8,3.41.46,19.85,6.42,21.33,8.72.99,1.53-5.74,11.87-7.14,14.01-8.05-5.38-22.34-11.12-31.71-6.76-4.87,2.26-6.69,9.5-3.44,13.49Z"/>
      <path class="cls-1" d="M171,262.22v-84h37.5c1.7,0,9.36,2.68,11.39,3.61,27.77,12.72,28.71,59.89,2.41,75.19-2.52,1.47-11.44,5.2-13.8,5.2h-37.5ZM182,252.22h24.5c.59,0,7.09-2.3,8.18-2.82,18.78-9.06,20.39-43.16,4.23-55.59-1.89-1.45-9.62-5.59-11.41-5.59h-25.5v64Z"/>
      <path class="cls-1" d="M419,228.22h-18v-8h28v42h-10.01s0-10,0-10c-33.7,30.57-75.64-9.65-61.76-48.27,7.9-21.98,33.92-33.7,55.1-22.55,3.16,1.66,13.73,11.04,13.43,14.34-.09.97-6.57,5.89-8.13,5.43-1.2-.36-7.14-9.82-14.83-12.24-33.4-10.53-49.83,37.67-24.81,57.81,9.8,7.89,22.59,8.23,32.95.92,7.66-5.4,9.16-10.07,8.06-19.44Z"/>
      <polygon class="cls-1" points="490 64.22 490 136.22 534 136.22 534 151.22 472 151.22 472 64.22 490 64.22"/>
      <polygon class="cls-1" points="564 64.22 564 136.22 608 136.22 608 151.22 547 151.22 547 64.22 564 64.22"/>
      <path class="cls-1" d="M714.84,178.39l33.17,83.83c-2.86-.44-9.79,1.1-11.52-.98l-8.38-22.4c-1.22-1.59-30.8-.19-35.47-.49-2.52.86-8.35,22.81-9.77,23.73s-9.4-.39-11.86.13l33.89-83.38,9.94-.45ZM696,229.22h28l-14.49-37.01-13.51,37.01Z"/>
      <path class="cls-5" d="M60,130.22h-18.5c-1.7,0-10.11-2.88-12.19-3.81C13.32,119.31.68,99.65,0,82.22c8.79-.4,16.45-1.45,25.25.26,23.89,4.66,34.02,24.95,34.76,47.74Z"/>
      <rect class="cls-1" x="434" y="64.22" width="18" height="87"/>
      <polygon class="cls-1" points="628 178.22 628 188.22 599 188.22 599 262.22 588 262.22 588 188.22 559 188.22 559 178.22 628 178.22"/>
      <polygon class="cls-1" points="810 178.22 810 252.22 857 252.22 857 262.22 799 262.22 799 178.22 810 178.22"/>
      <path class="cls-3" d="M79,193.22c11.91,2.11,17.36,19.15,10.84,29.34-11.53,18.01-39.68,6.32-35.39-14.4,1.21-5.84,7.54-13.87,13.55-14.94,1.92-.34,9.08-.34,11,0Z"/>
      <rect class="cls-1" x="289" y="178.22" width="11" height="84"/>
      <rect class="cls-1" x="488" y="178.22" width="11" height="84"/>
    </g>
  </g>
</svg>